<?xml version="1.0" encoding="UTF-8" standalone="no"?>
<!-- Created with Inkscape (http://www.inkscape.org/) -->

<svg
   xmlns:dc="http://purl.org/dc/elements/1.1/"
   xmlns:cc="http://creativecommons.org/ns#"
   xmlns:rdf="http://www.w3.org/1999/02/22-rdf-syntax-ns#"
   xmlns:svg="http://www.w3.org/2000/svg"
   xmlns="http://www.w3.org/2000/svg"
   xmlns:sodipodi="http://sodipodi.sourceforge.net/DTD/sodipodi-0.dtd"
   xmlns:inkscape="http://www.inkscape.org/namespaces/inkscape"
   width="139.89798"
   height="57.311749"
   viewBox="0 0 37.014675 15.163733"
   version="1.1"
   id="svg2201"
   inkscape:version="0.92.0 r15299"
   sodipodi:docname="pantheon.svg">
  <defs
     id="defs2195">
    <clipPath
       id="clipPath1992"
       clipPathUnits="userSpaceOnUse">
      <path
         inkscape:connector-curvature="0"
         id="path1990"
         d="M 41.811,770.976 H 145.984 V 813.21 H 41.811 Z" />
    </clipPath>
  </defs>
  <sodipodi:namedview
     id="base"
     pagecolor="#ffffff"
     bordercolor="#666666"
     borderopacity="1.0"
     inkscape:pageopacity="0.0"
     inkscape:pageshadow="2"
     inkscape:zoom="2.8997845"
     inkscape:cx="101.25073"
     inkscape:cy="10.742344"
     inkscape:document-units="mm"
     inkscape:current-layer="layer1"
     showgrid="false"
     fit-margin-top="0"
     fit-margin-left="0"
     fit-margin-right="0"
     fit-margin-bottom="0"
     units="px"
     inkscape:window-width="1280"
     inkscape:window-height="744"
     inkscape:window-x="-4"
     inkscape:window-y="-4"
     inkscape:window-maximized="1" />
  <metadata
     id="metadata2198">
    <rdf:RDF>
      <cc:Work
         rdf:about="">
        <dc:format>image/svg+xml</dc:format>
        <dc:type
           rdf:resource="http://purl.org/dc/dcmitype/StillImage" />
        <dc:title></dc:title>
      </cc:Work>
    </rdf:RDF>
  </metadata>
  <g
     inkscape:label="Layer 1"
     inkscape:groupmode="layer"
     id="layer1"
     transform="translate(-73.09514,-156.23816)">
    <g
       id="g2326"
       style="fill:#20314e;fill-opacity:1"
       transform="translate(0.1322919,-0.13228906)">
      <path
         d="m 103.90354,169.03616 c 0,-1.30281 -0.69709,-2.13325 -1.79987,-2.13325 -1.10279,0 -1.79987,0.83044 -1.79987,2.13325 0,1.30281 0.69708,2.1336 1.79987,2.1336 1.10278,0 1.79987,-0.83079 1.79987,-2.1336 m 0.53622,0 c 0,1.41922 -0.95391,2.36573 -2.33609,2.36573 -1.38219,0 -2.336097,-0.94651 -2.336097,-2.36573 0,-1.41922 0.953907,-2.36573 2.336097,-2.36573 1.38218,0 2.33609,0.94651 2.33609,2.36573"
         style="fill:#20314e;fill-opacity:1;fill-rule:nonzero;stroke:none;stroke-width:0.35277778"
         id="path1996"
         inkscape:connector-curvature="0" />
      <path
         d="m 87.560472,162.33677 -0.550686,-0.16228 v -3.4163 l 0.550686,-0.31115 z"
         style="fill:#20314e;fill-opacity:1;fill-rule:nonzero;stroke:none;stroke-width:0.35277778"
         id="path2000"
         inkscape:connector-curvature="0" />
      <path
         d="m 91.003724,163.35192 -0.550686,-0.1591 v -6.37928 l 0.550686,-0.3108 z"
         style="fill:#20314e;fill-opacity:1;fill-rule:nonzero;stroke:none;stroke-width:0.35277778"
         id="path2004"
         inkscape:connector-curvature="0" />
      <path
         d="m 95.139867,162.31373 0.550686,-0.13935 v -3.4163 l -0.550686,-0.26493 z"
         style="fill:#20314e;fill-opacity:1;fill-rule:nonzero;stroke:none;stroke-width:0.35277778"
         id="path2008"
         inkscape:connector-curvature="0" />
      <path
         d="m 106.30193,171.24225 h -0.121 c -0.21731,0 -0.39406,-0.17321 -0.40076,-0.38911 v -3.19793 l 3.38349,3.65195 0.16052,-0.001 v -4.09539 c 0.007,-0.21555 0.18379,-0.38841 0.40111,-0.38841 h 0.11994 v -0.0646 H 108.432 v 0.0646 h 0.11995 c 0.21942,0 0.39722,0.17568 0.4011,0.3937 v 3.18558 l -3.41771,-3.64384 h -0.12876 c 10e-4,0.18309 0.003,4.09081 0.003,4.09081 -0.005,0.21802 -0.18239,0.3937 -0.40147,0.3937 h -0.12065 v 0.0649 h 1.41429 z"
         style="fill:#20314e;fill-opacity:1;fill-rule:nonzero;stroke:none;stroke-width:0.35277778"
         id="path2012"
         inkscape:connector-curvature="0" />
      <path
         d="m 74.091734,167.02832 h 0.7493 c 0.552803,0 0.860072,0.39793 0.8763,0.99483 0.0039,0.14358 -0.0127,0.22472 -0.04163,0.31609 -0.230716,0.73237 -0.941564,0.74577 -1.234369,0.71826 -0.176389,-0.0219 -0.285397,-0.0575 -0.349603,-0.0868 z m 0.499181,4.21393 h -0.0829 c -0.227542,0 -0.412045,-0.18239 -0.416278,-0.40887 v -1.81257 c 0.124178,0.0494 0.32385,0.12841 0.32385,0.12841 v -7.1e-4 c 0.800453,0.33761 1.788936,-0.18591 1.788936,-1.13594 0,-0.77788 -0.508705,-1.25483 -1.339497,-1.25483 H 73.09514 v 0.0642 h 0.08326 c 0.2159,0 0.392995,0.16439 0.414161,0.37464 v 3.63679 c -0.0046,0.22648 -0.189088,0.40887 -0.41663,0.40887 h -0.08079 v 0.0649 h 1.495778 z"
         style="fill:#20314e;fill-opacity:1;fill-rule:nonzero;stroke:none;stroke-width:0.35277778"
         id="path2016"
         inkscape:connector-curvature="0" />
      <path
         d="m 78.419012,167.44689 0.727781,2.01013 h -1.525059 z m -1.003653,3.79589 h -0.05715 c -0.166864,0 -0.340078,-0.1464 -0.248355,-0.40393 l 0.435327,-1.1109 h 1.674637 l 0.415925,1.10702 c 0.0949,0.25999 -0.07937,0.40781 -0.247298,0.40781 h -0.0568 v 0.0646 h 1.53917 v -0.0653 h -0.05433 c -0.198967,0 -0.439561,-0.11959 -0.570795,-0.40887 l -1.699683,-4.07564 h -0.188383 l -1.698625,4.076 c -0.131234,0.28892 -0.371475,0.40851 -0.569031,0.40851 h -0.05856 v 0.0653 h 1.383947 z"
         style="fill:#20314e;fill-opacity:1;fill-rule:nonzero;stroke:none;stroke-width:0.35277778"
         id="path2020"
         inkscape:connector-curvature="0" />
      <path
         d="m 82.706744,171.24225 h -0.121003 c -0.217311,0 -0.394053,-0.17321 -0.401108,-0.38911 v -3.19793 l 3.383844,3.65195 0.160514,-0.001 v -4.09539 c 0.0071,-0.21555 0.183797,-0.38841 0.401108,-0.38841 h 0.119945 v -0.0646 h -1.413228 v 0.0646 h 0.119945 c 0.219427,0 0.397227,0.17568 0.401108,0.3937 v 3.18558 l -3.417711,-3.64384 h -0.129117 c 0.0014,0.18097 0.0032,4.09081 0.0032,4.09081 -0.0042,0.21802 -0.182033,0.3937 -0.401108,0.3937 h -0.12065 v 0.0649 h 1.414286 z"
         style="fill:#20314e;fill-opacity:1;fill-rule:nonzero;stroke:none;stroke-width:0.35277778"
         id="path2024"
         inkscape:connector-curvature="0" />
      <path
         d="m 86.799883,167.40876 c 0,-0.20849 0.126647,-0.37818 0.332669,-0.387 h 1.232606 v 3.82235 c -0.0095,0.22154 -0.191911,0.39829 -0.415925,0.39829 h -0.08326 v 0.0649 h 1.4986 v -0.0649 h -0.08325 c -0.225425,0 -0.409222,-0.17957 -0.415925,-0.40358 v -3.81706 h 1.1938 c 0.206375,0.009 0.370769,0.17851 0.370769,0.387 v 0.11571 h 0.06526 v -0.76694 h -3.760611 v 0.76694 h 0.06526 z"
         style="fill:#20314e;fill-opacity:1;fill-rule:nonzero;stroke:none;stroke-width:0.35277778"
         id="path2028"
         inkscape:connector-curvature="0" />
      <path
         d="m 92.402171,171.24204 h -0.08326 c -0.227541,0 -0.412044,-0.18239 -0.416277,-0.40887 v -1.63371 h 2.659591 v 1.639 c -0.0067,0.22402 -0.1905,0.40358 -0.416277,0.40358 h -0.08326 v 0.0649 h 1.497542 v -0.0649 h -0.0829 c -0.227542,0 -0.412045,-0.18239 -0.416278,-0.40887 v -3.60257 c 0.0042,-0.22648 0.188736,-0.40887 0.416278,-0.40887 h 0.0829 v -0.0642 h -1.49577 v 0.0642 h 0.08149 c 0.225072,0 0.407811,0.17816 0.416277,0.40076 v 1.70568 h -2.659591 v -1.7018 c 0.0063,-0.22437 0.190147,-0.40464 0.416277,-0.40464 h 0.0829 v -0.0642 h -1.496836 v 0.0642 h 0.0829 c 0.226483,0 0.41028,0.18098 0.415925,0.40605 v 3.60539 c -0.0042,0.22648 -0.188736,0.40887 -0.416278,0.40887 h -0.0829 v 0.0649 h 1.497542 z"
         style="fill:#20314e;fill-opacity:1;fill-rule:nonzero;stroke:none;stroke-width:0.35277778"
         id="path2032"
         inkscape:connector-curvature="0" />
      <path
         d="m 96.669829,167.19487 v 3.63926 c -0.0042,0.22648 -0.188736,0.40851 -0.416278,0.40851 h -0.0829 v 0.0653 h 2.731912 l 0.37853,-1.08797 h -0.06526 c -0.200378,0.49495 -0.464961,0.8509 -1.153583,0.8509 h -0.932392 v -1.87149 h 1.105253 c 0.171097,0.007 0.307622,0.14711 0.307622,0.31997 v 0.096 h 0.0635 v -1.10279 h -0.0635 v 0.0956 c 0,0.17498 -0.140405,0.31679 -0.314325,0.32032 h -1.09855 v -1.93357 h 1.325386 c 0.202848,0.0123 0.363714,0.18062 0.363714,0.38664 v 0.11536 h 0.06562 v -0.73872 h -2.714272 v 0.0646 h 0.08573 c 0.214841,0 0.391583,0.16298 0.413808,0.37218"
         style="fill:#20314e;fill-opacity:1;fill-rule:nonzero;stroke:none;stroke-width:0.35277778"
         id="path2036"
         inkscape:connector-curvature="0" />
    </g>
  </g>
</svg>
